<?xml version="1.0" encoding="utf-8"?>
<!-- Generator: Adobe Illustrator 24.1.3, SVG Export Plug-In . SVG Version: 6.00 Build 0)  -->
<svg version="1.1" id="Layer_1" xmlns="http://www.w3.org/2000/svg" xmlns:xlink="http://www.w3.org/1999/xlink" x="0px" y="0px"
	 viewBox="0 0 280 255" style="enable-background:new 0 0 280 255;" xml:space="preserve">
<style type="text/css">
	.st0{fill:#2ADE00;}
	.st1{fill:#D8E4FF;}
	.st2{fill:#FFFFFF;}
	.st3{fill:#0041D2;}
	.st4{fill:#FF9587;}
	.st5{fill:#FF8878;}
	.st6{clip-path:url(#SVGID_2_);}
	.st7{fill:#FFA066;}
	.st8{fill:#3D4067;}
	.st9{fill:#535ADA;}
	.st10{fill:#272C70;}
	.st11{fill:#E6E6E6;}
	.st12{fill:#F2F3F5;}
	.st13{fill:none;stroke:#D8E4FF;stroke-width:0.99;stroke-miterlimit:10;}
</style>
<g>
	<path class="st0" d="M181.9,93.3c0,18-17,25.7-27.5,37.3c-8.6,9.6-12.1,22.5-17.7,34.2s-14.7,23.3-27.5,24.7
		c-14.9,1.7-27.4-10.9-35-23.9S61,137.8,48.8,129.1c-4.7-3.4-10.2-5.7-15.4-8.3c-12.5-6.3-24.5-15.5-30-28.5s-2.8-30.1,8.9-37.9
		c6.4-4.2,14.5-5.4,20.4-10.2c12.2-10,10.1-31.3,23-40.3C66.6-3.7,82,1.9,92,10.6s17.8,20.3,29.4,26.6c13.7,7.4,31.5,6.9,42.6,17.8
		C172.2,62.8,181.8,81.6,181.9,93.3z"/>
	<path class="st0" d="M98.5,177.5c0,3.1,0.4,6.1,1.1,9.1c5.4,23.7,29,38.6,52.7,33.2c6.9-1.5,14-1.6,20.9-0.1
		c5.5,1.1,11.1,1.7,16.7,1.7c46.1,0.1,83.9-37.6,83.9-83.7c0-0.6,0-1.1,0-1.7c-0.7-46.2-38.7-83.2-84.9-82.6s-83.2,38.7-82.6,84.9
		c0,4.1,0.4,8.1,1,12.2C101.5,158.2,98.4,167.7,98.5,177.5z"/>
	<path class="st1" d="M202,150.5c-1.2,0.3-2.2,1-3,2c-2.4,3-4.3,6.4-5.5,10c-1.4,4.7-1.8,9.6-1.4,14.4c0.8,3.1,1.1,6.4,2.2,9.5
		c0.5,1.3,1.2,2.5,1.8,3.7c0.1,0.2,0.2,0.4,0.3,0.7c-0.2,0.1-0.3,0.2-0.5,0.3l-10.7,6.3l-0.7,0.5c-0.4,0.3-0.6,0.6-0.4,1.1
		c0.3,0.4,0.7,0.4,1.1,0.2c0.4-0.2,0.8-0.4,1.2-0.6l10.3-5.9c0.9-0.5,0.9-0.4,1.7,0.3c1.2,1.5,2.3,3.2,3.2,4.9
		c0.9,1.5,12.8,18.6,24.2,10.6c10.1-7.1-12.7-17.3-23.8-17.5c-0.6,0-1.3-0.1-1.9-0.3l16-8.9c0,0.1,13.3,9.7,23.2,8.9
		c1.9-0.2,3.6-1.2,4.7-2.6c0.8-0.9,1-2.2,0.5-3.3c-3.1-7.6-21.8-6.4-22.2-6.4H222l-0.1-0.2c1.3-0.8,2.7-1.4,4-2.3
		c3.4-2.1,6.8-4.1,10.1-6.3c0.4-0.3,0.9-0.3,1.2,0c1.4,0.7,9.2,9.4,18.9,9.1c2.1,0,4.1-0.6,5.9-1.6c1.1-0.7,1.9-1.6,2.5-2.7
		c0.6-1.1,0.4-2.5-0.6-3.2c-6.2-5.5-14.4-3.8-23.6-4l0.5-0.3c4-2.4,8.1-4.8,12.1-7.2c0.3-0.2,0.7-0.3,1.1-0.3
		c0.1,0,21.2-1.1,25-11.4c0.4-1.1,0.4-2.3-0.1-3.3c-0.4-1-1.2-1.8-2.2-2.1c-0.3-0.1-13-3.7-24.6,14.5c-0.2,0.4-0.5,0.9-0.6,1.4
		c-0.1,0.1-0.1,0.3-0.3,0.3c-3.7,2.2-7.3,4.3-11,6.5c0,0-0.1,0-0.2,0c0.6-0.8,1.1-1.5,1.7-2.2c3.2-4,5.6-8.7,7-13.6
		c0.7-2.3,0.8-4.7,0.1-7c-0.2-0.7-0.5-1.3-1-1.8c-0.9-1-2.4-1.1-3.5-0.4c-0.8,0.5-1.6,1.2-2.2,1.9c-1.2,1.4-2.2,3.1-2.8,4.9
		c-1.3,3.5-2.3,7.1-3.1,10.8c-0.4,2-0.5,4-0.3,6c0.1,1.1,0.1,2.2,0.3,3.3c0.1,0.3-0.1,0.6-0.3,0.7l-15.4,9.3l-0.4,0.2
		c0.7-1.2,1.5-2.3,2.1-3.4c2.5-4.4,4.3-9.2,5.3-14.2c0.6-2.6,0.6-5.4,0-8c0-0.2-0.1-0.4-0.1-0.5c-0.5-1.5-2.1-2.2-3.6-1.7
		c-8.7,2.1-12.5,21.4-8.2,30.1c0,0.1,0.1,0.2,0.1,0.2l-16.4,9.2c0.4-0.7,0.7-1.4,1.1-2.1c6-11.4,9.6-26.8,6-33.8
		c-0.4-0.7-0.9-1.4-1.4-2.1C204.1,150.4,203,150.1,202,150.5z"/>
	<path class="st1" d="M96.6,191.6c1.2,0,2.4,0.3,3.5,1c3.3,2,6.1,4.7,8.4,7.7c2.8,4,4.8,8.5,5.9,13.3c0.2,3.2,1,6.4,0.9,9.7
		c-0.1,1.4-0.3,2.7-0.6,4.1c0,0.2-0.1,0.4-0.1,0.7l0.6,0.1l12.2,2.6c0.3,0.1,0.6,0.1,0.8,0.2c0.4,0.1,0.8,0.3,0.7,0.9
		s-0.5,0.6-1,0.6c-0.5-0.1-0.9-0.1-1.4-0.2l-11.6-2.4c-1.1-0.2-1.1-0.2-1.5,0.8c-0.7,1.8-1.2,3.7-1.5,5.7
		c-0.4,1.7-6.3,21.7-19.6,17.7c-11.8-3.5,6.6-20.5,17.1-24.1c0.6-0.2,1.2-0.5,1.7-0.8l-18-3.4c0,0.1-9.5,13.4-19.2,15.7
		c-1.8,0.4-3.7,0-5.3-1c-1.1-0.6-1.6-1.7-1.5-2.9c0.5-8.1,18.6-12.9,19-13c0.1,0,0.3-0.1,0.4-0.1v-0.2c-1.5-0.3-3-0.5-4.5-0.9
		c-3.9-0.9-7.7-1.8-11.6-2.8c-0.4-0.2-0.9,0-1.2,0.4c-1,1.1-5.7,11.9-15,14.6c-2,0.6-4.1,0.8-6.1,0.3c-1.2-0.3-2.3-1-3.2-1.9
		c-1-0.8-1.1-2.2-0.5-3.3c4.2-7.2,12.5-8.1,21.2-11.2l-0.6-0.1c-4.6-1-9.2-2-13.7-3c-0.4-0.1-0.7-0.1-1.1,0
		c-0.1,0-20.5,5.6-27.3-2.9c-0.7-0.9-1.1-2-1-3.2c0-1.1,0.6-2.1,1.5-2.6c0.3-0.2,11.2-7.6,28,6c0.4,0.3,0.7,0.7,1,1.1
		c0.1,0.1,0.2,0.2,0.4,0.2l12.5,2.7c0,0.1,0.1,0,0.2,0l-2.3-1.5c-4.3-2.8-8.1-6.5-11-10.7c-1.4-1.9-2.2-4.3-2.3-6.6
		c0-0.7,0.1-1.4,0.4-2c0.6-1.2,1.9-1.8,3.2-1.5c1,0.2,1.9,0.6,2.7,1.1c1.6,1,3.1,2.2,4.2,3.7c2.3,2.9,4.5,6,6.4,9.3
		c1,1.7,1.7,3.6,2.1,5.6c0.3,1.1,0.6,2.1,0.8,3.2c0,0.3,0.2,0.5,0.5,0.6l17.6,4l0.4,0.1c-1.1-0.9-2.1-1.7-3.1-2.6
		c-3.8-3.4-7-7.3-9.5-11.7c-1.4-2.3-2.2-4.9-2.5-7.6c0-0.2,0-0.4,0-0.5c0-1.5,1.3-2.8,2.9-2.7c9-0.7,18.6,16.4,17.3,26
		c0,0.1,0,0.2,0,0.3l18.5,3.5c-0.6-0.6-1.1-1.1-1.7-1.7c-9.3-8.9-17.6-22.4-16.4-30.2c0.1-0.8,0.4-1.6,0.7-2.4
		C94.6,192.3,95.5,191.6,96.6,191.6z"/>
	<path class="st2" d="M135.9,92.7c-1.1,5.5-6.4,7.9-6.4,7.9c3.7-2.9,3.6-8.9,3.2-12.5c-3.3-4.3-7-8.2-10.9-11.9
		c-1-1-2.1-1.9-3.1-2.8c-0.7,2.6-2.3,5-4.5,6.7c2.1-2.4,2.2-6,1.7-9.1c-5.6-4.7-11.5-9-17.6-12.8c-0.8,2.5-2.3,4.7-4.4,6.3
		c1.8-2.1,2.1-5,1.8-7.8C79,46.9,66.1,43.9,66.1,43.9S69.3,58.5,78.5,77c2.6,0.5,5.5,0.4,7.6-1.1c-1.7,1.8-3.9,3.1-6.4,3.6
		c3.1,5.9,6.5,11.5,10.2,17c3.4,1.3,8.4,2.6,11.8,0.2c0,0-3.6,4.1-9,3.8l0.9,1.3c4.1,5.6,8.9,10.7,14.3,15c3.5,0.7,8.3,0.9,11.1-1.8
		c-1.6,2.3-3.9,4-6.6,4.8c14.1,8.2,22.5,0.6,22.5,0.6c0.3-0.2,0.5-0.4,0.7-0.6l0,0C138.5,117.6,146.2,109.2,135.9,92.7z"/>
	<g>
		<path class="st1" d="M89.2,94.6v72.9c0,7.2-5.8,13-13,13h-51c-7.2,0-13-5.8-13-13V94.6c0-7.2,5.8-13,13-13h51.1
			C83.4,81.6,89.2,87.4,89.2,94.6z"/>
		<path class="st3" d="M23.1,81.6c-6.1,0-11,5-11,11v10.1h77V92.6c0-6.1-4.9-11-11-11H23.3C23.2,81.6,23.2,81.6,23.1,81.6z"/>
		<path class="st3" d="M63.1,147.4v7.7H37.3v-7.7h9v-19.2c-0.5,0.6-1.1,1.1-1.8,1.6c-0.9,0.6-1.7,1.1-2.7,1.5c-1,0.5-2,0.9-3.1,1.1
			c-0.9,0.3-1.8,0.4-2.8,0.4v-7.9c1-0.1,1.9-0.3,2.8-0.7c1.1-0.5,2.2-1.1,3.2-1.8c1-0.6,1.9-1.3,2.8-2c0.6-0.4,1.1-0.9,1.5-1.6H55
			v28.6L63.1,147.4z"/>
		<g>
			<path class="st4" d="M17.5,138.9c0.1,0,0.4,0.1,0.4-0.2C18,138.7,17.6,138.4,17.5,138.9z"/>
			<polygon class="st4" points="19.4,133.6 18.9,134.2 19.1,134.1 			"/>
			<path class="st4" d="M19.1,132.6l0.5-0.2l-0.1-0.1c0-0.8,0.9-1.7,0.5-2.3C19.8,130.9,19.5,131.7,19.1,132.6z"/>
			<path class="st4" d="M19.5,127.7L19.5,127.7c0.5-0.9,0.3-0.2,0.1-0.5C19.6,127.5,19.5,127.6,19.5,127.7z"/>
			<path class="st4" d="M19.4,127.7C19.4,127.4,19.3,128.2,19.4,127.7z"/>
			<path class="st4" d="M20,125.7c0.1-0.2-0.1,0.4,0,0.5l0.5-0.5C20.4,125.4,20.3,125.2,20,125.7z"/>
			<path class="st4" d="M20.8,125.7l0.2-0.3C20.8,125.6,20.8,125.6,20.8,125.7z"/>
			<path class="st4" d="M20.7,126c0.4,0,0.2-0.1,0.2-0.3l-0.5,0.5C20.6,126,20.8,126,20.7,126z"/>
			<path class="st4" d="M20.6,126.9c-0.4,0.5-0.3,0-0.3-0.3C19.8,127.7,20.1,128,20.6,126.9z"/>
			<path class="st4" d="M20.4,130.7l0.3-0.3c0-0.2,0-0.3,0-0.5C20.5,129.8,20.6,130.5,20.4,130.7z"/>
			<path class="st4" d="M22,123.1l0.4-0.3c-0.1-0.1-0.2-0.5-0.3-0.5C22.1,122.4,22,122.8,22,123.1z"/>
			<path class="st4" d="M22.8,122.3l-0.5,0.5C22.4,122.8,22.5,122.8,22.8,122.3z"/>
			<polygon class="st4" points="21.8,125.5 20.8,126.4 21.7,125.7 			"/>
			<polygon class="st4" points="23.8,119.9 23,120.2 23.5,120.1 			"/>
			<path class="st4" d="M25.4,117.7c-0.4,0.1-0.8,0.3-1.2,0.6c0.3-0.1,0,0.5,0.4,0.4C24.7,118.3,25,117.9,25.4,117.7z"/>
			<path class="st4" d="M25.4,117.7c0.2-0.1,0.4-0.2,0.6-0.3C25.8,117.4,25.6,117.5,25.4,117.7z"/>
			<path class="st4" d="M23.5,121.1l-0.1-0.4c-0.1,0.2-0.1,0.4,0,0.6L23.5,121.1z"/>
			<path class="st4" d="M23.9,120.6l-0.3,0.5l0,0L23.9,120.6z"/>
			<path class="st4" d="M23.4,121.3L23.4,121.3L23.4,121.3z"/>
			<path class="st4" d="M23.1,124c0.2-0.8-0.5-0.2-0.8,0C22.8,123.6,22.7,124.1,23.1,124z"/>
			<path class="st4" d="M22.9,122.4c0.2-0.1,0.2,0.1,0.3,0.1c0.1-0.2,0.2-0.4,0.3-0.7C23.3,122,23.1,122.2,22.9,122.4z"/>
			<polygon class="st4" points="23.7,121.6 23.5,121.9 23.8,121.7 			"/>
			<path class="st4" d="M25.5,118.9c0.3-0.3,0.5-0.6,0.8-1c-0.2,0.3-0.5,0.5-0.8,0.6C25.1,118.9,25.4,118.9,25.5,118.9z"/>
			<path class="st4" d="M24.6,119.8L24.6,119.8C24.5,119.8,24.6,119.8,24.6,119.8z"/>
			<polygon class="st4" points="28.9,115.4 29,115.4 29,115.3 			"/>
			<path class="st4" d="M25.5,118.9c-0.2,0.2-0.3,0.4-0.5,0.5C25.2,119.4,25.4,119.2,25.5,118.9C25.6,118.9,25.6,118.9,25.5,118.9z"
				/>
			<path class="st4" d="M26.6,117.3c0.1-0.2,0.2-0.4,0.2-0.5C26.7,116.7,26.6,117.1,26.6,117.3z"/>
			<path class="st4" d="M24.5,119.6L24.5,119.6C24.5,119.5,24.5,119.5,24.5,119.6z"/>
			<path class="st4" d="M24.6,119.7c0.1-0.1,0.3-0.2,0.4-0.3c-0.1,0-0.3,0.1-0.4,0.2C24.6,119.6,24.6,119.7,24.6,119.7z"/>
			<path class="st4" d="M31,116.2l0.7-0.3c-0.2-0.6-1.5,0.1-1.5-0.4c-0.2,0.4,0.1,0.5-0.7,1c-0.6,0.2,0.2-0.9,0.3-1.2
				c-0.7,0.3-0.8,0.2-0.9,0.1c-0.1,0.9,0.4,2,1,1.7c0.2-0.7,1.1-0.9,1.3-0.7C31.4,116.3,31.1,116.3,31,116.2z"/>
			<path class="st4" d="M27.9,116.4l1-1c-0.1-0.1-0.3-0.1-0.7,0.1c-0.1,0.4-0.2,0.7-0.4,1L27.9,116.4L27.9,116.4z"/>
			<path class="st4" d="M27.8,116.5c-0.4,0.3-0.8,0.5-1.1,0.8l0,0c0,0-0.1,0.1,0,0s0.4-0.3,0.1,0h-0.1l0,0c0,0.1,0,0.1,0,0l0,0l0,0
				c-0.1,0.2-0.2,0.4-0.4,0.6c0.2-0.2,0.4-0.3,0.6-0.5c-0.5,0.9,0.9-0.2-0.1,0.7c0.5-0.3,0.5,0.1,1.1-0.5c0-0.6-0.6-0.2-1-0.3
				C27.1,117.1,27.5,116.8,27.8,116.5z"/>
			<path class="st4" d="M24.1,123.7L24.1,123.7C24.2,123.7,24,123.7,24.1,123.7z"/>
			<path class="st4" d="M23.8,122.2c0.1-0.1,0.1,0.8-0.1,1.3h-0.1c-0.2,0.6,0.2,0.3,0.4,0.2c-0.1-0.1-0.4,0.1-0.3-0.2
				s0.3-0.3,0.4-0.3C24.1,122.9,24,122.5,23.8,122.2z"/>
			<path class="st4" d="M26,120l0.1,0.2l0.1-0.6c-0.3,0.2-0.6,0.5-0.9,0.7C25.6,120.3,25.7,120.6,26,120z"/>
			<path class="st4" d="M29.5,114.9c-0.3,0-0.6,0-0.9,0l0.4,0.2L29.5,114.9z"/>
			<polygon class="st4" points="30.4,113.9 29.9,114 30.2,114.2 			"/>
			<path class="st4" d="M71.3,152.7l0.2-0.2C71.5,152.5,71.4,152.6,71.3,152.7z"/>
			<path class="st4" d="M72.7,150.6h-0.2C72.5,150.7,72.6,150.7,72.7,150.6z"/>
			<path class="st4" d="M65.5,113.1l0.3-0.2c0.3-0.3-0.5-0.2-1.1-0.2C65.1,112.8,65.3,112.9,65.5,113.1z"/>
			<path class="st4" d="M76.8,132.8l-0.3,0.4l0.1,0.1C76.7,133.1,76.7,132.9,76.8,132.8z"/>
			<path class="st4" d="M75.5,134.4l-0.3-0.5C75.3,134.1,75.4,134.2,75.5,134.4z"/>
			<path class="st4" d="M63,160.5l0.5,0.1C63.3,160.4,63.4,160.2,63,160.5z"/>
			<path class="st4" d="M45.2,108.2c-0.3,0.1-0.7,0.2-1,0.4C44.4,108.8,44.8,108.5,45.2,108.2z"/>
			<path class="st4" d="M75,153.8c0.1,0,0.2,0,0.3-0.1C75.3,153.6,75.2,153.6,75,153.8z"/>
			<path class="st4" d="M45.3,108.2c0.3-0.1,0.7-0.1,1,0l0.2-0.1C46.1,107.9,45.6,107.9,45.3,108.2z"/>
			<path class="st4" d="M26.5,153.7L26.5,153.7L26.5,153.7z"/>
			<path class="st4" d="M18.7,143.5c0-0.2,0-0.4,0-0.6C18.6,143.1,18.6,143.3,18.7,143.5z"/>
			<path class="st4" d="M35.3,111C35.2,111,35,111.1,35.3,111z"/>
			<path class="st4" d="M34.7,113c0-0.1-0.1-0.1-0.2-0.1C34.6,112.9,34.7,113,34.7,113z"/>
			<path class="st4" d="M49.6,110.3L49.6,110.3C49.5,110.4,49.5,110.4,49.6,110.3z"/>
			<path class="st4" d="M35.2,111c-0.1,0.1-0.2,0.2-0.3,0.3C35,111.2,35.1,111.1,35.2,111z"/>
			<path class="st4" d="M34.6,111.3l0.2-0.2C34.6,111.2,34.6,111.3,34.6,111.3z"/>
			<path class="st4" d="M35.2,111C35.3,111,35.2,111,35.2,111c0.1,0,0.3-0.1,0.4-0.2L35.2,111z"/>
			<path class="st4" d="M45,166.2L45,166.2C44.8,166.1,44.7,166,45,166.2z"/>
			<path class="st4" d="M68.4,120.6L68.4,120.6L68.4,120.6z"/>
			<path class="st4" d="M69.4,120.1l-1,0.5c0.3,0.2,0.5,0.3,0.4,0.9C69,121,69.2,120.6,69.4,120.1z"/>
			<path class="st4" d="M69.1,155.9c-0.3,1-1.3,1.2-1.8,1.4c-0.1,0.4,0.9,0.5,0,1c-1.2,0.8-0.4-0.8-1.1-0.3l-0.1,0.8
				c-0.2,0.1-0.5,0.2-0.7,0.4c-0.2,0.1-0.4,0.3-0.5,0.4c-0.3,0.4-0.6,0.7-0.9,1c-0.1,0.1-0.2,0.1-0.4,0.1c-0.7,0.8-2,0.6-2.5,1.1
				c0.2,0-0.2,0.5-0.2,0.7l-1.3,0.2c0.6-0.1,0.7,0.2,0.9,0.5c-0.3,0.1-0.6,0.1-0.9,0.1c0.2,0,0.4,0.1,0.3,0.3h-0.7h-0.8
				c0.1-0.1,0.2-0.2,0.3-0.2c-0.3,0.1-1.1,0.2-1.4,0.6c0.1,0.1,0.3,0.2,0.4,0.3c0.3-0.5,0.6-0.3,0.9-0.1c-0.9,0.3-0.2,0.2-0.6,0.6
				c-0.7,0.2-1.1-0.1-1-0.4c-0.5,0.4-1.1,0.5-1.7,0.4l0.3,0.4h-0.7l0.7,0.4c-1.3,0.6-0.4-0.7-1.9-0.1l0.1,0.4
				c-0.6-0.1-0.9-0.7-1.3-0.2c-0.6-0.2,0.9-0.7-0.4-0.6c-0.3,0.3-0.7,0.5-1.1,0.6c-0.4-0.2,0.3-0.5,0.6-0.5c-2-0.1-1.2,1.5-3,1
				c0.3-0.1,0.2-0.3,0.1-0.5s0.1-0.3,0.8-0.3c-0.7-0.2-1.4,0.6-2.1,0.1l0.4,0.5c-0.2,0-0.5-0.1-0.7-0.3v0.4
				c-0.3-0.3-0.8-0.4-1.2-0.3c-0.4,0-0.7,0-0.9-0.5c0.3,0.8-0.6-0.1-1,0.1c0.7,0.6,2.1,0.4,2.1,1c-0.4,0.2-0.6-0.2-1-0.1
				c0.2,0.1,0.5,0.3,0.6,0.5c-1.2,0.2-1.8-0.7-2.4-0.9l1.2,0.3c0-0.7-0.5-0.2-0.8-0.8c-0.7,0.3-1-0.4-1.6-0.3c0.1,0,0.1,0.1,0.3,0.1
				c-1.3-0.4-2,0.6-2.5,0.4s-1.4-0.8-0.9-0.9c-0.3-0.3,1.6,0.8,1.2-0.3c-0.5,0.3-0.9,0.1-1.3-0.2c-0.2-0.2-0.5-0.3-0.7-0.4
				c-0.3-0.2-0.7-0.3-1.1-0.3c0.5,0.7-0.6,0.3-0.1,0.9c-0.4-0.2-0.7-0.6-0.9-1l-0.4,0.2c-0.6-1.1,0.1-0.7-1.1-1.8
				c0.3,0.4-0.8,0.1-0.6,0.4c-0.4-0.2-0.7-0.5-0.9-0.9v0.1c-1.2-1.1-1.3-0.4-2.2-1.7l0.2-0.1c-0.3-0.4-0.6-0.8-1-1.2
				c-0.2-0.2-0.4-0.4-0.6-0.6l-0.5-0.6l-1-1.3c-0.3-0.4-0.6-0.8-0.9-1.3l0.5,0.4c-0.2-0.1-0.5-1.2-1.1-1.5c0.1,0.1,0.1,0.3,0.2,0.4
				c-0.3,0.1-0.7,0-0.9-0.3l0.2-0.3h-0.3c-0.4-0.6,0.5-0.1,0.1-0.7c-0.5,0.1-1-0.6-1.3-1.3s-0.7-1.5-1.2-1.6c0.4-0.7,0.7,1.2,1,0.4
				c-0.2-0.1-0.4-0.3-0.6-0.6h0.4c-0.3-0.5-0.5-0.9-0.7-1.2s-0.4-0.7-0.6-1c-0.4-0.7-0.6-1.5-0.8-2.3l-0.1,0.1c-0.3-0.6-0.4-1,0-1.4
				c-0.2-0.1-0.2,0.4-0.4,0.2c0.3-0.6,0.2-1.3-0.2-1.8c-0.2-0.2-0.3-0.5-0.4-0.7s0-0.5,0.1-0.7c-0.8,0.2-1.6-1.5-2.3-0.7l0.1-0.6
				c-0.5,0.2,0.1,1.7-0.5,2.1c0.2,0.6,0.5,1.1,0.8,1.6c-0.2-0.1-0.5,0.3-0.6,0c0.1,0.4,0.1,0.8-0.3,0.3c0.3,0.5,0.4,1,0.7,1.5
				s0.4,1,0.6,1.5c0.3,1,0.7,2,1,3c0.6,2,1.6,3.9,3,5.5c0.1,0.3-0.1,0.2-0.3,0.2c0.8,0.4,0.2,0.8,0.4,1.1l1.3,0.4
				c0.1,0.5-0.3,0.4-0.4,0.5c0.6,0.9,1.3,1.6,2.1,2.2c0.7,0.6,1.4,1.2,2,1.9c0.6,0.2,0.3-0.5,0.9-0.1c-0.6,0-0.3,0.4,0.1,0.8
				s0.9,0.8,0.5,0.8c0.5,0,1.1,0.1,1.5,0.5c0.4,0.2,0.8,0.3,1-0.2c0.7,0.4,0.3,0.7,0.1,0.7c0.8,0.4,1.5,0.9,2.1,1.6
				c0.8,0.3,1.6,0.6,2.4,1c1.1,0.4,2.3,0.8,2.8,0.5c-0.7,0.4-0.1,0.3,0.4,0.7l-0.6,0.3l1.3,0.3c0.3,0.1,0.3,0.1,0.3,0.1
				c0.2,0,0-0.3,0.6-0.3c0.5,0.1,1,0.4,1.3,0.8l-0.1,0.1l0.6,0.1c0.4,0.1-1.5-0.7,0-0.7c0,0.1,0.8,0.9,1.2,0.6
				c-0.7-0.1-0.6-0.4-0.3-0.5c0.3,0,0.7,0.1,1,0.1c-0.1,0.2-0.3,0.4-0.4,0.6c3.1,0.1,6.2-0.2,9.2-0.8c-0.1-0.5,2.2-0.6,1.7-1.3
				l-0.1,0.1c-0.8,0.1,0.1-0.7,0.7-0.7c-0.6,0.4,1.4,0.5-0.1,1c0.4,0,0.9,0,1.3,0c0.6,0.6,1.4,0.3,2.2-0.2c0.8-0.6,1.7-1.1,2.7-1.5
				c-0.1,0-0.2,0-0.3-0.1c0.8-0.2,1.6-0.7,2.2-1.3c0.6-0.5,1-1,1.2-1l-0.1-0.4c1.2-0.1,2.2-0.7,2.8-1.7c-0.1,0-0.3,0-0.1-0.2
				c0.7,0,1.4-0.4,1.8-1l-0.1-0.1l1.3-1.3c-0.5-0.4,0.2-0.9,0.8-1.4s1.4-1.2,0.9-1.8c0.5-0.1,1.3-1.2,1.8-1.6
				c-0.1,0-0.1-0.1-0.1-0.2c1-0.3,0.7-1.9,1.1-2.6c0.4-0.4,0.5-0.1,0.6,0.2c-0.1-1.1,1.6-2.4,1.5-2.9c0.2-0.7-0.4-0.4-0.6-0.7
				c0.4-1,1.1,0.5,1-1.1c-0.1,0.2-0.3,0.5-0.3,0.3c0-0.6-1.1-1.9-0.8-2.4l0.2,0.4c0.5-0.9-0.7-2.5,0.2-2.5l0.4,0.1
				c-0.1-0.9-0.1-1.1-0.1-1.3s0.1-0.4-0.1-1.3H78c0.1-0.8-0.4-1.2,0.3-1.6l0.1,0.3c0-0.7,0-1.3-0.1-2c0.1-0.1,0.1-0.6,0-0.7
				c0.6-0.1-0.1-2.3-0.2-2.7c0,0.8-0.2,0.4-0.5,0.3c0.2-0.2,0.3-0.4,0.3-0.7c-0.1-0.3-0.2-0.5-0.4-0.7c0.6-0.2,1.3-0.5,1-1.8
				c-0.1,0.2,0,0.5-0.2,0.4s-0.1-0.4-0.1-0.5c-0.2-0.1-0.2,0.3-0.4,0.3c0.4-1-0.4-1.4-0.6-2.7c-0.1,0.4-0.3,0.2-0.6,0.1
				c0.3-0.2,0.1-0.5-0.2-0.8s-0.5-0.4,0.1-0.4c-1.5-2-3-5.4-4.1-5.7c-0.4,0-0.4-0.8-0.6-1.2l-0.2,0.3c-0.3-1.3-0.4-0.8-0.9-2.3
				c0.1,0.7-0.2,0.6-0.8,0.4c0-0.4-0.1-0.8-0.2-1.2l-0.5,0.3c-0.2-0.4-0.5-0.7-0.9-0.9c0.2,0.2,0.1,0.1,0,0.2
				c0.2-0.3-0.1-0.8-0.4-1.2s-0.7-0.7-0.7-0.9c-0.8,0.3-0.8-0.8-1.4-0.5c-0.1-0.2-0.2-0.3-0.3-0.5c0.3-0.2,0.6-0.4,0.2-0.5l-0.1-0.1
				l-0.4,0.3c-0.3-0.3-0.5-0.5-0.8-0.7c0.1,0,0.3,0,0.4,0c-0.2-0.1-0.4-0.1-0.5-0.1l-0.1-0.1l0.1,0.1c-0.3,0-0.5-0.2-0.7-0.4
				c-0.8-0.2-1.5-0.5-2-1.1c-0.3-0.3-0.6-0.5-1-0.7s-0.8-0.2-1.2-0.2c0.3,0,0.6,0.1,0.6,0.2c-1.2-0.5-2.5-0.4-3.2-0.8l0.2-0.3
				c-0.7-0.4-1.5-0.7-2.3-0.8V108c-0.8-0.1-1.5-0.2-2.2-0.4c-0.7-0.2-1.4-0.1-2,0.3c-0.3-0.3-1.5,0-2.2-0.1l-0.2,0.3
				c-0.6,0.1-1.2,0.1-1.8,0c-0.7,0.3-1.5,0.5-2.3,0.5c-0.7,0-1.5,0-2.2,0.2v0.1l-1.5,0.1c0.5,0.2-0.3-0.1-0.7,0.1
				c-0.6,0.1-1.2,0.3-1.6,0.7l-0.9,0.3c1.1-0.2,0.1,0.5,0.2,0.8c-0.2,0-0.4,0-0.7,0c-0.1,0.3,0.5,0.1,0.1,0.4c-0.5,0-1.5,0.5-2,0.3
				c0-0.1,0.1-0.3,0.2-0.4c0.1,0,0,0,0,0l0,0l0,0c-0.1,0-0.1,0-0.2-0.1c-0.6,0.4-0.5,0.2-0.5,0c-0.5,0.9-1.1,0.8-1.3,1.8
				c0.3-1.1-1.6,1-1.6,0.1c-0.2,0.9-0.4,0.3-0.4,0.9c0.6-0.7,1.7-0.6,2.4-0.8l-0.4,0.7c0.7,0.4,1.1-1,1.6-1c-0.3,0-0.8,0.4-0.7,0.6
				l-0.1-0.5c0.2-0.2,0.4-0.3,0.6-0.4c0.2-0.1,0.4-0.1,0.6-0.2c0.4-0.1,0.8-0.1,1.2-0.1c-0.5,0.5,0.8-0.1,0.6,0.5l-0.5,0.2
				c-0.1,0.2,0.4,0.2,0.7,0.2c1.2-1.1,4.1-1.6,4.5-2.1c-0.4,0.2-0.8,0.3-1.2,0.2l0.7-0.4c-0.3,0.1-0.6,0.2-0.8,0.4
				c-0.3,0.2-0.6,0.4-1,0.4c0-0.4-0.7-0.6-0.2-1.2c0.4-0.4,1.1-0.5,1.6-0.3c0.6,0.2,1.3,0.2,1.9,0c0.2,0.1-0.5-0.5,0.6-0.5
				c1.5,0.1,2.5,0.7,2.6,1.4c-0.6-0.1-1.8-0.4-1.8,0.2c0.6,0.1,1.5,0.1,1.6,0.4c0.5-0.6-1,0-0.4-0.6c0.3,0,0.5,0.1,0.8,0.2
				c-0.3-0.2,0.3-0.4,0.4-0.6c0.6,0,1.1-0.1,1.6-0.2c0.3-0.1,0.5-0.1,0.8-0.1s0.6,0,0.9,0c0.1-0.1,0.2-0.3,0.2-0.4
				c0.7,0.2,1.6,1.1,1.3,1.5c0.8,0.1,0.8-0.2,1.5,0.1c-1.1,0.4,0.2-0.1,0.2,0.5c0.6,0.2,0.3-0.2,0.6-0.3c0.1,0.1,0.3,0.3,0.3,0.5
				c0.5-0.4-0.6-1.2,0-1.7c0.4-0.2,0.8-0.3,1.2-0.4c0.5-0.1,0.9-0.1,1-0.1c0,1.1-0.3,2.2-1,3c0,0.3,0.7-0.2,1-0.2
				c0.4-0.1,0.8,0,1,0.3c0.2,0.2,0.4,0.5,0.8,0.5l-0.4-0.5c0.1-0.1,1.1,0.4,1.1,0.7c0.1-0.2-0.2-1.1,0.2-1.2
				c0.6,0.2,1.1,0.6,1.4,1.1c0.3,0.3,0.3,0.8,0.2,1.2c-0.5-0.5-1-0.9-1.5-1.3c-0.1,0.2,0.2,0.4,0.4,0.7s0.5,0.5,0.3,0.8l1.6,0.6
				c-0.2-0.1-0.7-0.5-0.4-0.6c0.7,0.4,0.4,0.1,0.9,0.1c-0.2-0.4-0.6-1.2-0.9-1.9s-0.6-1.6-0.8-2c0.3,0.2,0.5,0.4,0.8,0.7l0.3-0.2
				c0.5,0.5,0.9,1.2,1,1.9c0.1,0.6,0.2,1.1,0.2,1.7c0.6,0.2,1-0.7,0.9-1c1.2,0.7,0.4,1.9,1.6,2.6l-0.5-0.1c0.2,0.3,1.2,0.8,1,0.9
				c0.4,0,1-0.4,0.8-0.7c0.2,0.5,0.3,0.9,0.4,1.4c-0.1-0.2,0.6-0.7,0.6-0.9c0.4,0.3,0,1.3-0.3,1.2c0.6,0.2,1.2,0.3,1.8,0.3
				c0.2,0.2-0.6,0.6-0.8,0.5c0.2,0.4,0.5,0.8,0.9,1c-0.4-1,1.1-1.4,1.4-2c0,1.2-0.1,2.3-0.3,3.3c0.2-0.3,0.4-0.6,0.6-0.8
				c-0.2,0.3,0.1,1,0.5,1.7c0.2,0.4,0.5,0.7,0.7,1.1s0.4,0.7,0.6,1l-0.1-0.2c0.1-0.3,0.8,0.5,0.8,1c0.1-0.1,0-0.2-0.1-0.4
				c0.9,0.5-0.4,1.5,0.5,1.9c-0.4-0.6-0.2-0.9,0.1-1c0,0.7,0.9,1.9,0,2c0.4,0.3,0.4,0.7,0.8,0.5l0.1,1.6c0-0.1,0.2-0.3,0.5,0.1
				c-0.4-0.8,0-1.9-0.6-2.1c0.5-0.2,0.9,0,1.1-0.6c0.2,0.7,0.2,1.5,0.1,2.3c-0.1,0.3-0.1,0.6-0.2,0.9s-0.2,0.6-0.3,0.9l0.7,1.3
				l-0.2,0.1l0.7,0.1c-0.1,0.2-0.2,0.3-0.1,0.4s0.1,0,0.2-0.1c0,0.1,0,0.3-0.1,0.4c0.3,0,0.6-0.3,0.9-0.7l-0.4-0.3
				c0.2-0.4,0.5-0.6,0.8-0.3c0,0.1-0.1,0.2-0.1,0.2c0.2-0.3,0.3-0.4,0.4-0.3c0,0.4,0,0.8-0.1,1.3c-0.2-0.2-0.3-0.3-0.5-0.5
				c-0.3,0.8-0.6,1.7-1.1,1.1l0.5,0.8c-0.3,0.7-0.5,1.4-0.7,2.1c0.2,0.1,0.4-0.3,0.5-0.1c-0.2,0.5-0.2,1,0.1,1.5
				c0.2,0.5,0.4,0.9,0.1,0.9c-0.2,0.7-0.5,0.3-0.7,0.7c0.1,0,0.2-0.1,0.2,0.1l-0.5,0.5c0.1,0.2,0.3-0.5,0.5,0.1
				c-0.2,0.5-0.4,0.9-0.5,1.3c-0.1,0.4-0.2,0.8-0.1,1.2c-0.3,1.2-0.8-0.6-0.8,0.4c0.3,0.2,0.7,0.4,0.6,1.1c-0.3,0.3-0.6,0.2-0.9,0.7
				l0.5,0.1c-0.2,0.5-0.4,0.9,0,1c-0.3,0.2-0.4,0.5-0.4,0.9c-0.6,0.7-0.9-0.9-1-1.1c0.1,0.8-0.3,1.3,0.2,1.9l0.4-0.6
				c0.1,0.5-0.1,1-0.5,1.3c-0.2,0.2-0.4,0.3,0,0.8c0.1-0.2,0.2-0.4,0.4-0.6c0.2-0.2,0.3-0.2,0.4,0c-0.2,0.2-0.4,0.4-0.6,0.6
				c0.1,0.1,0.3-0.4,0.3,0c-0.3,0.2-0.6,0.4-0.9,0.5l0,0c-0.2,0.4-0.4,0.8-0.7,1.2c0.1-0.3,0.3-0.2,0.2,0l-0.7,0.6
				c0.3-0.2,0.3,0.2,0.1,0.6c-0.5,1.1-1.5,0.1-1.5,1.1c0.1-0.1,0.1-0.1,0.2-0.2l-0.1,0.5c-0.5-0.3-0.9,0.2-1.3,0.7s-0.9,0.9-1.4,0.6
				c-0.1,0.8,0.1,0.3,1.1,0l-0.2,0.7C68.7,156.3,68.8,156.1,69.1,155.9z M73.6,148.4c-0.2-0.2,0.2-0.5,0.4-0.7
				C73.9,148.1,74,148.4,73.6,148.4z M75.7,132.5c-0.3-0.2-0.3-0.5-0.3-0.6C75.6,132.1,75.7,132.3,75.7,132.5z M38.6,109.9
				L38.6,109.9C38.9,109.8,39,109.6,38.6,109.9z M37.7,110.5c0.4,0,0.4-0.1,0.4-0.3c-0.2,0.1-0.6,0.1-0.6,0.1S37.5,110.5,37.7,110.5
				L37.7,110.5z M41.3,168.3c-0.1-0.1-0.2-0.3,0.2-0.1L41.3,168.3L41.3,168.3z"/>
			<path class="st4" d="M75.6,133.8c-0.1,0-0.2,0-0.2,0C75.5,134,75.5,133.9,75.6,133.8z"/>
			<path class="st4" d="M63.5,160.6L63.5,160.6L63.5,160.6L63.5,160.6z"/>
			<path class="st4" d="M53.7,112.2c-0.1,0.1-0.3,0.1-0.4,0.2C53.6,112.3,53.7,112.3,53.7,112.2z"/>
			<path class="st4" d="M32.4,112.6c0.1-0.2,0.3-0.3,0.5-0.4L32.4,112.6C32.4,112.3,32.4,112.5,32.4,112.6z"/>
			<path class="st4" d="M28.8,117.9l0.1,0.2c0.1,0,0.1-0.2,0.3-0.2C29.4,117.6,29.1,117.6,28.8,117.9z"/>
			<path class="st4" d="M31.8,114.5L31.8,114.5c0.3-0.2,0.8-0.3,0.6-0.6C31.9,114,31.4,114.2,31.8,114.5z"/>
			<path class="st4" d="M31.3,114.8c0.1-0.1,0.2-0.2,0.4-0.3C31.4,114.7,31.1,114.7,31.3,114.8z"/>
			<path class="st4" d="M35.9,110.6c0.1-0.2,0.2,0.3,0.4,0.2C37.5,110.4,35.5,110.3,35.9,110.6z"/>
			<polygon class="st4" points="33,114.7 32.6,114.6 32.7,115 			"/>
			<path class="st4" d="M34.8,113.4c0.1-0.1,0.3-0.1,0.3,0l0.6-0.4C35.6,112.8,35.2,113.1,34.8,113.4z"/>
			<path class="st4" d="M34.3,113.6c0.2,0,0.4-0.1,0.5-0.2C34.6,113.4,34.5,113.5,34.3,113.6z"/>
			<polygon class="st4" points="34.2,114.1 33.8,114.4 33.6,114.6 			"/>
			<path class="st4" d="M43.4,110.6c0.3,0,0.5-0.1,0.4-0.2H43C42.9,110.5,43.1,110.6,43.4,110.6z"/>
			<path class="st4" d="M41.4,112.2l-0.2-0.5c-0.1,0.2-0.1,0.3-0.2,0.4L41.4,112.2z"/>
			<path class="st4" d="M43.4,112c0.9-0.1-0.1-0.2-0.2-0.4C42.5,111.9,43.3,111.8,43.4,112z"/>
			<polygon class="st4" points="54.7,110.2 54.5,111.1 54.7,111.1 			"/>
			<path class="st4" d="M62.9,116c0.1,0.3-0.6-0.2-0.6,0.1c0.8,0.2-0.1,0.5,0.7,0.7C63.6,116.4,63.3,116.4,62.9,116z"/>
			<path class="st4" d="M62.8,115.8c0,0.1,0.1,0.2,0.2,0.3C62.9,115.9,62.8,115.8,62.8,115.8z"/>
			<polygon class="st4" points="18,140.4 17.7,140 17.9,140.7 			"/>
			<path class="st4" d="M18.4,138.9l-0.5,0.4l0.5,0.1C18.4,139.3,18.4,139,18.4,138.9z"/>
			<path class="st4" d="M73.5,146.5c0-0.3,0.1-0.4-0.1-0.5h-0.1L73.5,146.5z"/>
			<polygon class="st4" points="71.1,153.1 70.8,152.7 70.7,152.8 			"/>
			<path class="st4" d="M67,156.6c-0.2,0.2-0.4,0.4-0.6,0.5C66.8,157.6,66.6,157,67,156.6z"/>
		</g>
		<g>
			<path class="st5" d="M78.4,89.2c-1,0-1.8-0.8-1.8-1.8v-9.3l0,0c0-1,0.8-1.8,1.8-1.8l0,0c1,0,1.8,0.8,1.8,1.8v9.3
				C80.2,88.3,79.4,89.2,78.4,89.2L78.4,89.2L78.4,89.2z"/>
			<path class="st5" d="M65.9,87.3V78c0-1,0.8-1.8,1.8-1.8l0,0c1,0,1.8,0.8,1.8,1.8v9.3c0,1-0.8,1.8-1.8,1.8l0,0
				C66.7,89.2,65.9,88.3,65.9,87.3z"/>
			<path class="st5" d="M57,89.2c-1,0-1.8-0.8-1.8-1.8v-9.3c0-1,0.8-1.8,1.8-1.8l0,0c1,0,1.8,0.8,1.8,1.8v9.3
				C58.8,88.3,58,89.2,57,89.2L57,89.2L57,89.2z"/>
			<path class="st5" d="M44.6,87.3V78c0-1,0.8-1.8,1.8-1.8l0,0c1,0,1.8,0.8,1.8,1.8v9.3c0,1-0.8,1.8-1.8,1.8l0,0
				C45.4,89.2,44.6,88.3,44.6,87.3z"/>
			<path class="st5" d="M33.9,87.3V78c0-1,0.8-1.8,1.8-1.8l0,0c1,0,1.8,0.8,1.8,1.8v9.3c0,1-0.8,1.8-1.8,1.8l0,0
				C34.7,89.2,33.9,88.3,33.9,87.3z"/>
			<path class="st5" d="M25,89.2c-1,0-1.8-0.8-1.8-1.8v-9.3c0-1,0.8-1.8,1.8-1.8l0,0l0,0c1,0,1.8,0.8,1.8,1.8v9.3
				C26.8,88.3,26,89.2,25,89.2L25,89.2L25,89.2z"/>
		</g>
	</g>
	<g>
		<g>
			<path class="st3" d="M223.7,36v197.5c0,5.5-4.5,9.9-9.9,9.9H108.5c-5.5,0-9.9-4.5-9.9-9.9V36c0-5.5,4.5-9.9,9.9-9.9h105.3
				C219.3,26,223.7,30.5,223.7,36z"/>
			<path class="st1" d="M213.5,43.3V226c0,3.4-2.7,6.1-6.1,6.1h-92.6c-3.4,0-6.1-2.7-6.1-6.1V43.3c0-3.4,2.7-6.1,6.1-6.1h92.6
				C210.8,37.3,213.5,40,213.5,43.3z"/>
			<g>
				<g>
					<defs>
						<path id="SVGID_1_" d="M78.7,161.7c0.3,0.4,0.6,0.8,0.9,1.2c1.5,1.6,5.5,2.8,6.9,3.2c1.1,0.2,2.2,0.7,3.2,1.3l0.4,0.3
							l-1.7,2.3l3,3.4l1-1.2c5.1,5.8,10.6,11.3,16.4,16.4V226l0,0c0,3.4,2.7,6.1,6.1,6.1h92.6l0,0c3.4,0,6.1-2.7,6.1-6.1V43.3
							c0-3.4-2.7-6.1-6.1-6.1h-92.6c-3.4,0-6.1,2.7-6.1,6.1V171l-10.4-6.4l0.5-0.6l-4.8-2.3l-0.4,0.6c-0.7-0.6-1.2-1.4-1.6-2.2
							c-0.9-2.1-2-9-3.3-7.2s0.6,4.8-0.6,4.9s-7.9-6.9-9.2-6.5s1.8,3.3,3.6,4.9c-0.2,0.1-0.4,0.2-0.6,0.3c-0.3,0.4-0.6,0.8-0.7,1.3
							c-0.9,0.2-1.6,1-1.7,1.9c0,0,0,0.1-0.2,0.2C78.6,160.3,78.4,161,78.7,161.7z"/>
					</defs>
					<clipPath id="SVGID_2_">
						<use xlink:href="#SVGID_1_"  style="overflow:visible;"/>
					</clipPath>
					<g class="st6">
						<g>
							<path class="st7" d="M79.6,162.8c1.5,1.6,5.5,2.8,6.9,3.2c1.1,0.2,2.2,0.7,3.2,1.3l1.6,1.1l4.4-4.4c-1.5-1-2.8-2.3-3.7-3.8
								c-0.9-2.1-2-9-3.3-7.2s0.6,4.8-0.6,4.9s-7.9-6.9-9.2-6.5s1.8,3.3,3.6,4.9c-0.2,0.1-0.4,0.2-0.6,0.3c-0.3,0.4-0.6,0.8-0.7,1.3
								c-0.9,0.2-1.6,1-1.7,1.9c0,0,0,0.1-0.2,0.2c-0.6,0.4-0.8,1.1-0.5,1.8C78.9,162.1,79.2,162.5,79.6,162.8z"/>
							<path class="st8" d="M167.8,95.9c16,0,9.6,29.4,0,29.4c-6,0-10.9-6.6-10.9-14.7C156.9,102.5,161.8,96,167.8,95.9z"/>
							<path class="st9" d="M129.1,252.3c2.9,8.1,7.8,7.4,26.2,8.5s31.2,0,35.1-7.7c-1.4-45.8-3.3-78-5.7-95
								c-1.7-12.9-1.4-22.4-13.7-23.9l-5.2-1c-4.3,4.3-5.4,5.2-9,0.2l-1.2-1.1C135.7,133.3,132.1,229.5,129.1,252.3z"/>
							<path class="st2" d="M187.2,144.5l11.1,111.1L170,255l1-120.8C184.4,134.7,187.2,144.5,187.2,144.5z"/>
							<polygon class="st1" points="170.4,213 180.9,184.2 174.5,176.9 183.5,156 171,134.2 							"/>
							<path class="st2" d="M90.1,169.6c0,0,18.5,21.9,28.4,25.3c3.4,1.2,7.6-7.1,15.4-14.5l-11.4,73.3l25.7,2.7l4.1-122.9
								c-14.4,7.3-34.8,41.7-35.6,42.5l-22.1-13.6L90.1,169.6z"/>
							<polygon class="st1" points="150,214.9 142.1,187.7 147.6,176.3 142,152.3 152.3,133.5 							"/>
							<g>
								<g>
									<path class="st8" d="M138.5,190.2v-18.9c0-4.4,3.5-8.1,7.9-8.4c0.1,0,0.2,0,0.3,0c4.5,0,8.2,3.7,8.2,8.2v19.1l0,0
										c0,1.8-1.4,3.2-3.2,3.2v-1.7l0,0c0.8,0,1.5-0.7,1.5-1.5v-19.1c0-1.8-0.7-3.5-2-4.7s-3-1.9-4.8-1.8
										c-3.5,0.2-6.3,3.1-6.3,6.7v18.9l0,0c0,0.8,0.7,1.5,1.5,1.5v1.7C139.9,193.4,138.5,192,138.5,190.2z"/>
									<g>
										<path class="st8" d="M150.6,191.3L150.6,191.3c0.7,0,1.3,0.6,1.3,1.3s-0.6,1.3-1.3,1.3s-1.3-0.6-1.3-1.3
											C149.3,191.9,149.9,191.3,150.6,191.3z"/>
										<path class="st8" d="M141.1,192.6c0-0.7,0.6-1.3,1.3-1.3l0,0c0.7,0,1.3,0.6,1.3,1.4s-0.6,1.3-1.4,1.3
											C141.7,194,141.1,193.3,141.1,192.6L141.1,192.6z"/>
									</g>
								</g>
								<path class="st8" d="M176.1,147c0-0.3,0-0.5,0-0.8c-0.2-7.9-6.8-14.2-14.7-14s-14.2,6.8-14,14.7l-0.2,17.1h-1.7l0.2-17.1
									c0-8.9,7.2-16,16-16c8.9,0,16,7.2,16,16v6H176L176.1,147L176.1,147z"/>
								<g>
									<circle class="st8" cx="176.9" cy="156.9" r="4"/>
									<circle class="st1" cx="176.9" cy="156.9" r="2.8"/>
									<path class="st2" d="M176.9,155L176.9,155c1,0,1.9,0.8,1.9,1.9c0,1-0.8,1.9-1.9,1.9c-1,0-1.9-0.8-1.9-1.9
										S175.9,155,176.9,155z"/>
								</g>
							</g>
							<path class="st7" d="M155.5,133.3L155.5,133.3c0.9,0.6,1.2,1.9,0.5,2.8c-1,1.9,4.8,8.3,4.8,8.3s7.3-5.5,6.3-10
								c1.1-4.4,2.6-8.6,4.3-12.8c7.7-2.1,5.1-11.2,1.7-8.6c-0.1-2.1-0.8-6.7-4.3-12.8c-4.8-8.5-15.2-9.8-19.3-3.7s-4,14.2-4,14.2
								S145,132.7,155.5,133.3z"/>
							<g>
								<path class="st10" d="M182,212.8l-22.2,3.3c-3.4,0.5-6.6-1.9-7.1-5.3l-5.2-35.8c-0.5-3.4,1.9-6.6,5.3-7.1l22.2-3.3
									c3.4-0.5,6.6,1.9,7.1,5.3l5.2,35.8C187.8,209.1,185.4,212.3,182,212.8z"/>
								<path class="st11" d="M155.9,210.3l-5.3-35.8c-0.2-1.6,0.9-3.1,2.5-3.4l22.2-3.3c0.1,0,0.3,0,0.4,0c1.5,0,2.7,1.1,2.9,2.5
									l5.3,35.8c0.2,1.6-0.9,3.1-2.5,3.4l-22.2,3.3h-0.4C157.4,212.8,156.2,211.8,155.9,210.3z"/>
								<path class="st2" d="M162,185.8l2.5,8.4c0,0,32.2,1.4,40.3-7.5c5.8-6.4-5.2-35.2-18.2-45.8c-11.9-9.7-7.3,2.4-7.5,3.4
									c-2.1,8.6,7.7,7.6,4.8,17.8c-0.8,3.5,5.4,14.6,6,17.1L162,185.8z"/>
								<path class="st7" d="M149.9,193.4c-0.1,0.3-0.3,0.6-0.3,0.9c-0.3,2.2,6.6,3.2,9.5,0.6l5-1.4l-1.5-6.2
									c-1-0.7-6.8-0.8-6.8-0.8c-1.1-0.6-2.3-1-3.5-1.1c-0.9,0.1-1.8,0.3-2.6,0.7c-0.2,0-0.3,0.1-0.4,0.3c-0.2,0.3-0.2,0.8,0.2,1
									c0.7,0.5,2.3,0.2,3,1.1c-0.3,0.1-0.7,0.4-1,0.6c0,0-2.7-1.3-2.5,0.7c0,0.5,0.3,0.9,0.7,1.2c-0.3,0.3-0.5,0.7-0.6,1.1
									C148.9,192.5,149.2,193,149.9,193.4z"/>
								<g>
									<path class="st5" d="M158.3,166.6l0.7,4.3l11.3-1.9l-0.7-4.2l-2.5,0.4c-0.4-0.5-1-0.9-1.6-1.1c-1.8-0.6-3.8,0.3-4.5,2.1
										L158.3,166.6z"/>
									<g>
										<path class="st2" d="M167.6,166.3L167.6,166.3c0.3,0,0.6,0.3,0.6,0.6s-0.3,0.6-0.6,0.6s-0.6-0.3-0.6-0.6
											S167.3,166.3,167.6,166.3z"/>
										<path class="st2" d="M160.2,168c0-0.3,0.3-0.6,0.6-0.6s0.6,0.3,0.6,0.6s-0.3,0.6-0.6,0.6S160.2,168.3,160.2,168L160.2,168
											z"/>
									</g>
								</g>
								<polygon class="st12" points="166.1,184.1 168,194.8 163,194.3 161.4,186 								"/>
							</g>
							<polygon class="st12" points="98.8,164 91.4,173.3 88.4,169.9 94,161.7 							"/>
							<path class="st8" d="M142.6,114.7c0.1,0.3,0.1,0.7,0.1,1c0,0.2,0.1,0.3,0.2,0.4h0.1c0.5,0.3,0.9,0.9,0.9,1.5
								c0.4,8.5,13,6.1,12.4-0.7l0,0c0-0.6,0.4-1.1,1-1.1l0,0c0.6,0,1.1,0.5,1.1,1.1c0.1,7.1,12.8,7.4,12.4-0.6
								c0-0.6,0.3-1.2,0.8-1.6h0.1c0.1-0.1,0.2-0.2,0.2-0.4l-0.1-1c0-0.2-0.2-0.4-0.4-0.4c-2.8-0.2-8.1-0.8-11,0.5
								c-0.8,0.4-1.7,0.6-2.7,0.7h-1.1c-0.9,0.1-1.8-0.1-2.7-0.4c-3-1.1-8.3,0.1-11,0.6C142.7,114.2,142.6,114.5,142.6,114.7z
								 M159.2,116.8c-0.1-2.9,2.3-3.3,5.2-3.4s5.5-0.3,5.6,2.6C170.2,123.4,159.5,123.2,159.2,116.8z M144.6,117.3
								c-0.2-2.9,2.4-3,5.3-3.2c2.9-0.1,5.4-0.1,5.5,2.9C155.7,123.4,145.1,124.7,144.6,117.3L144.6,117.3z"/>
							<path class="st8" d="M144.3,102.9c-0.3,3.4-0.2,6.9,0.3,10.3c0.2,2,0.8,3.9,1.5,5.8l0.2-14.6c9.6,1.6,22.6-2.2,22.6-2.2
								l3.4,15.4l1.2-5.3l-2.6-14.7c-0.2-5.4-7.6-8.3-12.3-8.4c-1.2,0-2.4,0.1-3.5,0.2c-0.9-0.3-1.8-0.4-2.7-0.4
								c-2.9-0.1-5.5,1.4-7,3.8c-2.2,0.8-3.6,3-3.5,5.3C141.8,100,142.7,101.8,144.3,102.9z"/>
							<polyline class="st13" points="177.7,181.5 189.4,179 186.5,170.5 							"/>
						</g>
					</g>
				</g>
			</g>
		</g>
		<g>
			<path class="st2" d="M155.1,29.6c-0.9,0-1.7,0.8-1.7,1.7l0,0c0,0.9,0.8,1.7,1.7,1.7h23c0.1,0,0.2,0,0.3,0c0.9-0.2,1.6-1,1.4-2
				c-0.2-0.8-0.9-1.4-1.8-1.4H155.1L155.1,29.6z"/>
			<path class="st2" d="M142.4,31c0,0.1,0,0.2,0,0.3c0,0.9,0.8,1.7,1.7,1.7h4.7c0.9,0,1.7-0.8,1.7-1.7l0,0c0-0.9-0.8-1.7-1.7-1.7
				h-4.6C143.4,29.6,142.6,30.2,142.4,31z"/>
		</g>
	</g>
	<circle class="st5" cx="237.5" cy="46" r="11"/>
</g>
<g>
	<g>
		<g>
			<path class="st3" d="M141.2,75.9c0,2.1-1.2,2.3-2.8,2.3h-1.6v-4.6h1.6C140.1,73.6,141.2,74,141.2,75.9z M139.6,75.9
				c0-0.6-0.1-0.9-0.3-1.1s-0.5-0.3-0.8-0.3h-0.3v2.7c0.4,0.1,0.9,0,1.3-0.1C139.6,76.7,139.6,76.3,139.6,75.9z"/>
			<path class="st3" d="M144.5,74.5c0,0.4-0.1,0.8-0.1,1.2c-0.4,0-0.8,0-1.2,0v2.5h-1.4v-3.7h1.2l0.2,0.6l0,0c0.2-0.4,0.6-0.6,1-0.7
				C144.2,74.4,144.3,74.4,144.5,74.5z"/>
			<path class="st3" d="M144.9,77.5c0-0.4,0.3-0.8,0.8-0.8l0,0c0.4,0,0.8,0.3,0.8,0.8s-0.3,0.8-0.8,0.8S144.9,78,144.9,77.5
				L144.9,77.5z"/>
			<path class="st3" d="M148.3,73.6h3.3v1h-1.9v0.9h1.5v0.9h-1.5v1.8h-1.5L148.3,73.6L148.3,73.6z"/>
			<path class="st3" d="M154.3,78.2l-0.1-0.5c-0.2,0.4-0.6,0.6-1,0.6c-0.6,0.1-1.2-0.3-1.3-0.9c0-0.1,0-0.1,0-0.2
				c0-0.5,0.3-0.9,0.8-1s0.9-0.2,1.4-0.2c0-0.2,0-0.4,0-0.6c-0.2,0-0.4,0-0.6,0l-1.1,0.1c0-0.3-0.1-0.7-0.1-0.9
				c0.6-0.1,1.2-0.2,1.8-0.2c1.4,0,1.5,0.8,1.5,1.7v1.2v1L154.3,78.2z M154,77.3v-0.6l0,0c-0.2,0-0.5,0-0.7,0.1
				c-0.1,0.1-0.1,0.2-0.1,0.3c0,0.3,0.1,0.3,0.4,0.3C153.7,77.4,153.9,77.4,154,77.3z"/>
			<path class="st3" d="M158.8,74.5c0,0.4-0.1,0.8-0.1,1.2c-0.4,0-0.8,0-1.2,0v2.5H156v-3.7h1.2l0.2,0.6l0,0c0.2-0.4,0.6-0.6,1-0.7
				C158.5,74.4,158.6,74.4,158.8,74.5z"/>
			<path class="st3" d="M159.2,74.5h1.4v3.7h-1.4V74.5z M159.2,73.4c0-0.4,0.2-0.7,0.6-0.7c0.4,0,0.7,0.2,0.7,0.6s-0.2,0.7-0.6,0.7
				l0,0C159.5,74,159.2,73.7,159.2,73.4L159.2,73.4z"/>
			<path class="st3" d="M163.4,74.5h1.5l-1.1,3.7h-2l-1.1-3.7h1.5l0.6,2.9h0.1L163.4,74.5z"/>
			<path class="st3" d="M167.4,78.2l-0.1-0.5c-0.2,0.4-0.6,0.6-1,0.6c-0.6,0.1-1.2-0.4-1.2-1c0-0.1,0-0.1,0-0.2c0-0.5,0.3-0.9,0.7-1
				c0.5-0.1,0.9-0.2,1.4-0.2c0-0.2,0-0.4,0-0.6c-0.2,0-0.4,0-0.6,0l-1,0.1c0-0.3-0.1-0.7-0.1-0.9c0.6-0.1,1.2-0.2,1.8-0.2
				c1.4,0,1.5,0.8,1.5,1.7v1.2v1H167.4z M167.1,77.3v-0.6H167c-0.2,0-0.4,0-0.7,0.1c-0.1,0.1-0.1,0.2-0.1,0.3c0,0.3,0.1,0.3,0.4,0.3
				C166.8,77.4,167,77.4,167.1,77.3z"/>
			<path class="st3" d="M171.9,74.5c0,0.4-0.1,0.8-0.1,1.2c-0.4,0-0.8,0-1.2,0v2.5h-1.4v-3.7h1.2l0.2,0.6l0,0c0.2-0.4,0.6-0.6,1-0.7
				C171.6,74.4,171.7,74.4,171.9,74.5z"/>
			<path class="st3" d="M177.5,76.9c0,0.4-0.2,0.8-0.5,1.1c-0.6,0.2-1.3,0.3-2,0.2h-1.6v-4.6h1.9c1.1,0,2,0.1,2,1.1
				c0,0.5-0.4,0.9-0.9,1l0,0c0.6,0,1,0.4,1,1C177.6,76.8,177.5,76.8,177.5,76.9z M175.3,74.5H175v1h0.1c0.2,0,0.5,0,0.7,0
				c0.1-0.1,0.2-0.3,0.2-0.5c0-0.1,0-0.3-0.1-0.4C175.8,74.5,175.6,74.5,175.3,74.5L175.3,74.5z M176.1,76.8c0-0.2,0-0.4-0.2-0.5
				c-0.1-0.1-0.2-0.1-0.6-0.1H175v1.2c0.3,0,0.7,0,1-0.1C176.1,77.2,176.1,77,176.1,76.8L176.1,76.8z"/>
			<path class="st3" d="M180.3,78.2l-0.1-0.5c-0.2,0.4-0.6,0.6-1,0.6c-0.6,0.1-1.2-0.3-1.3-0.9c0-0.1,0-0.2,0-0.2
				c0-0.5,0.3-0.9,0.8-1s0.9-0.2,1.4-0.2c0-0.2,0-0.4,0-0.6c-0.2,0-0.4,0-0.6,0l-1.1,0.1c0-0.3-0.1-0.7-0.1-0.9
				c0.6-0.1,1.2-0.2,1.8-0.2c1.4,0,1.5,0.8,1.5,1.7v1.2v1L180.3,78.2z M180,77.3v-0.6l0,0c-0.2,0-0.5,0-0.7,0.1
				c-0.1,0.1-0.1,0.2-0.1,0.3c0,0.3,0.1,0.3,0.4,0.3C179.8,77.4,179.9,77.4,180,77.3z"/>
			<path class="st3" d="M185.8,74.6v3.2c0,0.7-0.3,1.4-0.8,1.8c-0.4,0.2-0.8,0.2-1.2,0.2c-0.5,0-1-0.1-1.5-0.3c0-0.3,0-0.6,0.1-0.9
				c0.4,0.1,0.8,0.1,1.1,0.1c0.2,0,0.5,0,0.7-0.1c0.1-0.2,0.1-0.3,0.1-0.5c0-0.1,0-0.2,0-0.3v-0.2c-0.3,0.3-0.7,0.6-1.1,0.6
				c-0.9,0-1.4-0.6-1.4-1.8c-0.1-0.6,0.2-1.3,0.6-1.8c0.5-0.2,1-0.3,1.5-0.3C184.6,74.4,185.2,74.5,185.8,74.6z M184.4,77.1v-1.7
				c-0.1,0-0.2,0-0.3,0h-0.3c-0.1,0-0.2,0-0.3,0c-0.1,0.1-0.2,0.6-0.2,1c0,0.6,0.1,0.8,0.5,0.8C184,77.2,184.2,77.1,184.4,77.1z"/>
			<path class="st3" d="M190.2,76.3v2h-1.3v-2c0-0.2,0-0.4,0-0.7c0-0.1-0.3-0.1-0.5-0.1s-0.3,0-0.5,0.1v2.6h-1.4v-4.9h1.4v1
				c0,0.3,0,0.5,0,0.8l0,0c0.3-0.4,0.8-0.6,1.3-0.6c0.3,0,0.7,0.1,0.9,0.3C190.3,75.3,190.3,75.8,190.2,76.3z"/>
			<path class="st3" d="M194.1,77.2l0.1,0.8c-0.5,0.2-1.1,0.3-1.6,0.3c-0.9,0.1-1.8-0.5-1.9-1.5c0-0.1,0-0.3,0-0.4
				c0-0.6,0.1-1.1,0.4-1.6c0.5-0.3,1-0.5,1.6-0.4c1.5,0,1.7,0.8,1.7,2.2h-1.1h-1.1c0,0.6,0.3,0.6,1,0.6
				C193.3,77.3,193.6,77.2,194.1,77.2z M192.1,76h1c0-0.5-0.1-0.7-0.4-0.7c-0.1,0-0.3,0-0.4,0.1C192.1,75.4,192.1,75.8,192.1,76
				L192.1,76z"/>
			<path class="st3" d="M197.5,74.5c0,0.4-0.1,0.8-0.1,1.2c-0.4,0-0.8,0-1.2,0v2.5h-1.4v-3.7h1.2l0.2,0.6l0,0c0.2-0.4,0.6-0.6,1-0.7
				C197.3,74.4,197.4,74.4,197.5,74.5z"/>
			<path class="st3" d="M197.9,74.5h1.4v3.7h-1.4V74.5z M197.9,73.4c0-0.4,0.3-0.7,0.6-0.7c0.4,0,0.7,0.3,0.7,0.6
				c0,0.4-0.3,0.7-0.6,0.7l0,0C198.3,74,198,73.7,197.9,73.4C198,73.4,198,73.4,197.9,73.4L197.9,73.4z"/>
		</g>
		<path class="st0" d="M132,49.2c0,0-1.3-3,1.9-3.3C135,49.3,132,49.2,132,49.2z M141.7,52.3c-3.3-0.3-2.5,2.9-2.5,2.9
			S142.2,55.8,141.7,52.3z M119.4,54.4c-3.2-0.5-2.7,2.7-2.7,2.7S119.6,58,119.4,54.4z M140.6,59.8c-3.2-0.3-2.5,2.9-2.5,2.9
			S141.1,63.4,140.6,59.8z M127.1,48.2c-0.9,3.1,2.4,2.9,2.4,2.9S130.6,48.3,127.1,48.2z M120.9,59.7c-0.5,3.2,2.8,2.6,2.8,2.6
			S124.4,59.4,120.9,59.7z M133.4,52.3c-0.5,3.2,2.8,2.6,2.8,2.6S136.9,52,133.4,52.3L133.4,52.3z M122.9,53.1
			c1.5,2.9,3.8,0.5,3.8,0.5S125.6,50.7,122.9,53.1z"/>
		<path class="st3" d="M145.1,62.9H143c0-3-2.5-5.5-5.5-5.5h-0.1c0.2,0.4,0.3,0.8,0.3,1.3c0,1.8-1.4,3.2-3.2,3.2v-2.1
			c0.6,0,1.1-0.5,1.1-1.1c0-0.3-0.1-0.6-0.3-0.8c-2,0.9-3.2,2.8-3.3,5v1.2c1,0.5,1.7,1.3,2.1,2.3h-6v0.2l0,0v0.7h6.3
			c0.1,0.3,0.1,0.6,0.1,0.9c0,0.4,0,0.8-0.2,1.2h-6.2v8.8H126V63.4h2.1v1.1h1.8v-1.7l0,0c0-2-1.1-3.8-2.8-4.7
			c-0.1,0.4-0.1,0.9,0,1.3l-2,0.5c-0.2-0.8-0.2-1.6,0-2.4c-0.2,0-0.4,0-0.6-0.1c-3,0-5.3,2.4-5.3,5.4H117c0-0.4,0-0.8,0.1-1.1
			c-0.4-0.4-0.9-0.6-1.4-0.5V59c0.7,0,1.5,0.2,2.1,0.5c0.5-1.1,1.3-2,2.3-2.8l0,0c0.2-0.1,0.5-0.3,0.6-0.5c0.3-0.4,0.4-0.8,0.4-1.2
			c0-1.1-1-2-2.1-1.9c-0.6,0-1.1,0.3-1.5,0.7l-1.7-1.4c1.2-1.6,3.4-2,5.2-1c0.6-1.9,2.4-3.1,4.4-3.1v2.1c-1.4,0-2.5,1.2-2.5,2.5
			c0,1.1,0.7,2,1.7,2.4c1.5,0,3,0.5,4.2,1.4c-0.1-0.4-0.1-0.7-0.1-1.1c0-3.4,2.7-6.1,6.1-6.1h0.2c0-0.8,0.3-1.6,0.7-2.2l1.7,1.2
			c-0.3,0.4-0.4,1-0.3,1.5c0.9,0.3,1.7,0.9,2.3,1.6l-1.6,1.3c-0.8-0.8-1.9-1.3-3-1.3c-2.2,0-4,1.8-4,4c0,0.8,0.2,1.7,0.7,2.4
			c2.4-2.8,6.4-3.5,9.6-1.7c0.5-0.6,1.2-1,2-1.2l0.6,2c-0.3,0.1-0.6,0.2-0.8,0.5C144.3,59,145.1,60.9,145.1,62.9z M134.5,76.1
			c-1.3,0-2.5-1.1-2.5-2.4h-2.1c0.1,2.5,2.1,4.5,4.6,4.5V76.1z M132.1,72.8c0.1-0.4,0.4-0.8,0.8-1.1l0,0c0.5-0.4,0.8-0.9,1.1-1.4
			h-2.5c-0.8,0.6-1.4,1.5-1.6,2.5H132.1z"/>
	</g>
	<path class="st0" d="M205.9,74.7c-4.5-1.1-4,3.6-4,3.6S205.9,79.6,205.9,74.7z"/>
	<g>
		<path class="st0" d="M201.7,78.3c-0.8-0.9-1.1-2.1-0.9-3.3c0.4-1.1,1.3-1.9,2.4-2.2l0.1-0.1l0.1,0.1c0.9,1.4,1.2,2.6,0.8,3.6
			c-0.5,0.9-1.3,1.6-2.4,1.9H201.7L201.7,78.3z"/>
		<path class="st1" d="M203.3,73.1c2.8,4.1-1.4,5.2-1.4,5.2S198.9,74.6,203.3,73.1 M203.5,72.6l-0.3,0.1c-1.2,0.3-2.2,1.2-2.6,2.3
			c-0.2,1.2,0.2,2.5,1,3.5l0.2,0.2l0.3-0.1c1.1-0.3,2-1,2.5-2c0.4-1,0.1-2.3-0.8-3.8L203.5,72.6L203.5,72.6z"/>
	</g>
</g>
</svg>
